<svg width="228" height="337" viewBox="0 0 228 337" fill="none" xmlns="http://www.w3.org/2000/svg">
<path d="M178.812 311.879C164.338 311.279 151.195 307.164 133.347 297.373L157.018 272.977C161.457 269.459 165.379 265.352 168.723 260.79L168.726 260.786C176.11 250.616 180.433 238.066 180.433 224.106C180.433 187.665 150.983 158.118 114.649 158.118C78.3143 158.118 48.8647 187.665 48.8647 224.106C48.8647 238.066 53.1873 250.616 60.5719 260.786L60.5725 260.787C64.0065 265.506 68.1012 269.725 72.7038 273.31L95.8984 297.172C77.8644 307.108 64.6409 311.275 50.0687 311.879H31.7764C25.9163 311.879 21.1752 307.111 21.2088 301.251L22.1591 135.627C22.1808 131.849 24.2184 128.369 27.5031 126.501L109.217 80.0381C112.456 78.1965 116.425 78.1965 119.664 80.0381L201.377 126.501C204.662 128.369 206.7 131.849 206.722 135.627L207.672 301.251C207.705 307.111 202.964 311.879 197.104 311.879H178.812ZM135.963 261.047L135.897 261.097L135.84 261.157L114.649 283.497L93.4575 261.157L93.4007 261.097L93.3349 261.047C83.2919 253.456 76.6634 240.632 76.6634 226.055C76.6634 202.61 93.7656 183.785 114.649 183.785C135.532 183.785 152.634 202.61 152.634 226.055C152.634 240.632 146.006 253.456 135.963 261.047ZM50.0896 335.654H50.1519L50.2136 335.646C73.6914 332.713 88.7054 329.01 107.977 316.112C109.502 315.091 111.213 314.47 112.966 314.247C113.983 314.117 115.015 314.122 116.032 314.262C117.744 314.497 119.412 315.114 120.903 316.112C140.175 329.01 155.189 332.713 178.667 335.646L178.729 335.654H178.791H214.432C221.402 335.654 227.041 329.982 227 323.011L225.813 123.582C225.786 119.09 223.364 114.953 219.459 112.732L120.654 56.5272C116.802 54.3355 112.079 54.3355 108.226 56.5272L9.42121 112.732C5.5167 114.953 3.09452 119.09 3.06778 123.582L1.88084 323.011C1.83936 329.982 7.47816 335.654 14.4484 335.654H50.0896Z" fill="#57B0E2" stroke="#57B0E2" stroke-width="2"/>
<path d="M153.839 65.6706C153.839 101.748 136.199 130.995 114.44 130.995L114.44 115.607C127.555 114.901 138.079 93.1005 138.079 66.311C138.079 39.0759 127.202 16.9974 113.784 16.9974C100.366 16.9974 89.488 39.0759 89.488 66.311C89.488 66.9332 89.4937 67.5527 89.5049 68.1693L75.5426 76.113C75.2131 72.7128 75.0419 69.2249 75.0419 65.6706C75.0419 29.5929 92.6812 0.346069 114.44 0.346069C136.199 0.346069 153.839 29.5929 153.839 65.6706Z" fill="#313638"/>
<path d="M131.513 120.748C131.513 129.944 123.869 137.399 114.44 137.399C105.011 137.399 97.3677 129.944 97.3677 120.748C97.3677 111.552 105.011 104.097 114.44 104.097C123.869 104.097 131.513 111.552 131.513 120.748Z" fill="#313638"/>
</svg>
