<svg width="1110" height="332" viewBox="0 0 1110 332" fill="none" xmlns="http://www.w3.org/2000/svg">
<path d="M1062.93 225.299C1068.86 215.728 1073.61 205.474 1077.08 194.761C1078.73 189.909 1079.05 184.702 1078 179.684C1076.95 174.666 1074.57 170.023 1071.11 166.241C1067.12 161.507 1063.01 156.705 1062.02 150.28C1061.56 147.553 1061.67 144.762 1062.32 142.076C1062.98 139.391 1064.18 136.867 1065.84 134.66C1067.51 132.453 1069.6 130.608 1072.01 129.239C1074.41 127.87 1077.06 127.005 1079.81 126.697C1092.99 124.989 1104.28 133.345 1106.09 146.161C1107.41 155.469 1106.03 164.958 1102.11 173.503C1082.29 217.506 1061.89 261.014 1034.8 301.121C1028.82 310.461 1020.9 318.414 1011.59 324.447C1003.63 329.385 995.189 331.829 985.756 328.856C975.144 325.438 969.676 318.756 969.778 308.691C969.804 303.845 971.48 299.153 974.531 295.388C977.581 291.622 981.824 289.01 986.559 287.98C991.816 286.81 997.239 286.596 1002.57 287.347C1023.23 289.689 1034.22 283.503 1043.84 264.432C1036.65 263.663 1033.71 258.485 1030.94 252.743C1019.59 229.144 1008.01 205.681 996.522 182.167C991.088 171.008 984.423 161.114 971.453 157.474C968.685 156.688 965.968 155.458 966.053 151.886C966.139 148.315 969.078 147.563 971.778 146.589C981.86 142.949 991.857 139.053 1002.37 136.814C1012.88 134.575 1018.14 137.087 1023.06 146.725C1036.25 172.529 1049.29 198.401 1062.93 225.299Z" fill="#FDFDFD"/>
<path d="M221.297 265.782C215.299 261.151 216.974 256.742 222.665 254.127C236.643 247.719 240.317 236.389 240.163 222.308C239.89 194.078 239.89 165.836 240.163 137.583C240.283 123.809 236.575 112.565 222.921 106.516C219.213 104.807 217.162 102.056 217.794 97.8006C220.46 94.6392 224.032 94.3829 227.842 94.3829C249.716 94.4684 271.572 94.3829 293.446 94.3829C297.359 94.3829 301.887 93.8019 303.084 98.9968C304.16 103.696 300.196 105.576 297 107.063C285.038 112.565 281.022 122.442 280.988 134.558C280.988 170.444 280.988 206.33 280.988 242.216C280.988 248.249 282.475 253.512 289.361 253.563C304.946 253.563 320.548 254.691 336.133 252.777C350.402 251.068 360.057 243.225 366.226 230.853C369.028 225.35 371.506 219.66 374.223 214.106C375.368 211.747 376.992 209.68 380.102 210.551C381.522 210.848 382.769 211.692 383.572 212.901C384.375 214.11 384.669 215.586 384.391 217.011C381.691 231.399 379.042 245.805 375.608 260.006C374.258 265.594 368.772 265.662 363.646 265.662C316.173 265.673 268.724 265.713 221.297 265.782Z" fill="#FDFDFD"/>
<path d="M881.362 153.287C881.362 176.733 881.362 200.178 881.362 223.624C881.362 227.845 881.977 232.049 882.285 236.27C882.849 243.857 886.301 249.001 894.247 250.539C896.725 251.034 899.373 251.478 899.869 254.708C900.365 257.938 898.16 259.937 895.87 261.544C886.113 268.55 859.437 269.268 849.133 262.825C846.7 261.362 844.636 259.359 843.101 256.971C841.566 254.582 840.601 251.873 840.281 249.052C839.525 243.747 839.109 238.398 839.034 233.04C838.931 196.316 839.034 159.559 839.034 122.87C839.034 118.062 838.937 113.26 838.743 108.464C838.35 98.7405 834.898 90.9823 825.192 86.9665C822.406 85.8044 819.142 84.4715 819.57 80.4728C819.946 77.0551 822.987 76.3544 825.619 75.4487C836.607 71.8089 847.458 67.6222 858.617 64.6146C873.997 60.4791 881.413 66.4601 881.447 82.0108C881.447 105.753 881.447 129.483 881.447 153.202L881.362 153.287Z" fill="#FDFDFD"/>
<path d="M958.073 153.697C958.073 177.143 958.073 200.589 958.073 224.034C958.073 228.528 958.773 233.023 959.183 237.517C959.833 244.523 963.524 248.898 970.496 250.47C973.213 251.068 976.272 251.325 976.563 255.118C976.802 258.075 974.956 259.801 972.889 261.39C963.011 268.926 934.644 269.456 924.733 262.261C922.638 260.795 920.871 258.909 919.544 256.723C918.218 254.538 917.36 252.1 917.026 249.565C916.23 244.263 915.79 238.913 915.71 233.553C915.59 196.539 915.71 159.542 915.71 122.477C915.71 117.948 915.59 113.437 915.437 108.908C915.129 98.843 911.558 90.8456 901.492 86.7956C898.912 85.7532 896.126 84.4032 896.195 80.9171C896.263 77.431 899.151 76.4911 901.885 75.5854C912.856 71.9456 923.725 67.8272 934.866 64.7684C950.622 60.4449 958.09 66.3747 958.124 82.4551C958.124 106.174 958.124 129.899 958.124 153.629L958.073 153.697Z" fill="#FDFDFD"/>
<path d="M599.844 267.969C571.973 267.969 545.639 244.489 542.597 207.219C540.068 176.289 556.593 144.675 596.717 137.6C616.301 134.182 635.816 136.472 652.751 148.656C657.234 151.668 660.845 155.808 663.221 160.659C665.597 165.509 666.654 170.9 666.285 176.289C665.892 186.337 659.09 193.616 649.504 194.18C644.926 194.418 640.431 192.898 636.937 189.931C633.443 186.964 631.214 182.775 630.706 178.22C630.023 173.196 629.63 168.103 629.373 163.045C629.032 156.21 627.528 149.818 620.402 147.153C611.943 143.991 603.655 144.623 596.375 150.57C587.711 157.679 584.413 167.659 583.029 178.083C581.605 187.892 582.489 197.897 585.609 207.304C595.367 236.646 622.948 248.625 653.468 236.782C657.484 235.227 662.577 230.596 665.67 234.954C669.087 239.602 663.038 243.601 660.065 246.916C646.496 261.732 628.997 267.866 599.844 267.969Z" fill="#FDFDFD"/>
<path d="M804.258 231.758C801.148 227.708 802.652 222.992 802.806 218.685C803.318 205.015 800.96 191.173 804.104 177.553L804.258 231.758Z" fill="white"/>
<path fill-rule="evenodd" clip-rule="evenodd" d="M820.168 252.265C807.676 250.556 805.403 241.772 804.258 231.758C803.097 213.693 803.04 195.574 804.087 177.502C804.805 156.705 796.585 143.957 778.164 139.241C762.211 134.911 745.473 134.326 729.256 137.532C715.876 140.317 702.889 144.829 694.618 156.91C689.201 164.805 688.893 173.708 693.746 179.843C699.163 186.679 706.785 187.55 714.543 185.944C722.301 184.337 725.07 177.861 727.428 171.504C728.133 169.603 728.742 167.668 729.35 165.737C730.774 161.211 732.192 156.707 734.827 152.706C736.512 150.048 738.959 147.959 741.849 146.712C744.739 145.465 747.937 145.118 751.027 145.717C757.538 146.623 760.341 151.322 761.896 157.218C763.329 162.587 763.403 168.042 763.478 173.491C763.519 176.487 763.56 179.481 763.827 182.458C764.373 188.661 761.947 189.601 756.291 189.823C737.596 190.506 718.901 191.873 701.812 200.76C687.543 208.193 680.332 221.266 682.228 235.279C684.484 251.923 694.584 263.526 710.544 267.303C731.478 272.241 749.37 266.499 764.749 251.222C767.108 260.672 773.208 265.696 782.043 267.063C792.16 268.765 802.53 268.181 812.392 265.354C816.041 264.543 819.314 262.534 821.689 259.647C823.842 256.691 824.218 252.828 820.168 252.265ZM763.724 228.426V218.173L763.741 213.166C763.741 206.698 763.741 203.477 762.135 201.989C760.542 200.514 757.368 200.744 751.044 201.204C750.463 201.289 749.899 201.289 749.335 201.289C731.495 203.562 721.686 216.054 725.104 232.168C727.513 243.413 734.297 248.334 745.849 247.223C756.325 246.284 763.433 238.799 763.724 228.426Z" fill="#FDFDFD"/>
<path fill-rule="evenodd" clip-rule="evenodd" d="M394.166 201.46C394.337 242.285 419.474 267.388 460.487 267.388C501.551 267.456 528.072 241.567 528.072 201.443C528.055 161.746 501.431 135.361 461.307 135.242C419.987 135.139 393.995 160.635 394.166 201.46ZM477.832 241.96C485.214 229.537 487.025 215.661 487.453 202.656C487.333 187.584 485.744 174.016 478.994 161.404C475.217 154.518 470.005 149.408 461.905 149.203C453.412 148.998 447.414 153.971 443.996 161.319C431.351 188.08 430.889 215.251 443.996 241.755C451.908 257.801 468.672 257.477 477.832 241.96Z" fill="#FDFDFD"/>
<path d="M145.476 225.227L145.478 225.223C151.879 216.408 155.625 205.531 155.625 193.434C155.625 161.857 130.106 136.254 98.6206 136.254C67.1351 136.254 41.6165 161.857 41.6165 193.434C41.6165 205.531 45.3624 216.408 51.7629 225.223L51.7635 225.224C54.7378 229.311 58.2838 232.966 62.2696 236.071L82.1902 256.565C66.693 265.085 55.3171 268.656 42.7903 269.176H26.9796C21.9888 269.176 17.9511 265.115 17.9797 260.125L18.8013 116.948C18.8197 113.73 20.555 110.766 23.3525 109.176L93.9917 69.0094C96.7501 67.441 100.131 67.441 102.889 69.0094L173.528 109.176C176.326 110.766 178.061 113.73 178.079 116.948L178.901 260.125C178.93 265.115 174.892 269.176 169.901 269.176H154.09C141.649 268.66 130.342 265.133 115.006 256.738L135.339 235.782C139.183 232.735 142.58 229.177 145.476 225.227ZM97.1823 271.493C97.1824 271.493 97.1825 271.493 97.1825 271.493C98.0506 271.382 98.9304 271.387 99.7975 271.506C99.801 271.507 99.8046 271.507 99.8081 271.508C101.264 271.709 102.684 272.235 103.952 273.084C120.636 284.25 133.639 287.455 153.946 289.992L154.007 290H154.07H184.881C190.981 290 195.917 285.035 195.88 278.935L194.854 106.533C194.831 102.601 192.711 98.9811 189.293 97.0371L103.879 48.4492C100.507 46.5309 96.3736 46.5309 93.0014 48.4492L7.58715 97.0371C4.1697 98.9811 2.04968 102.601 2.02628 106.533L1.0002 278.935C0.96389 285.035 5.89929 290 12 290H42.8109H42.8731L42.9349 289.992C63.242 287.455 76.2444 284.25 92.9284 273.084C94.2287 272.213 95.6877 271.683 97.1823 271.493ZM116.964 225.261L116.898 225.31L116.842 225.37L98.6206 244.579L80.3996 225.37L80.3428 225.31L80.277 225.261C71.6303 218.725 65.9187 207.68 65.9187 195.119C65.9187 174.912 80.6554 158.714 98.6206 158.714C116.586 158.714 131.323 174.912 131.323 195.119C131.323 207.68 125.611 218.725 116.964 225.261Z" fill="#57B0E2" stroke="#57B0E2" stroke-width="2"/>
<path d="M132.499 56.4713C132.499 87.6595 117.25 112.943 98.4403 112.943L98.4403 99.6399C109.777 99.0293 118.876 80.1837 118.876 57.0249C118.876 33.4809 109.472 14.3946 97.8727 14.3946C86.2731 14.3946 76.8697 33.4809 76.8697 57.0249C76.8697 57.5628 76.8746 58.0983 76.8844 58.6314L64.8143 65.4985C64.5295 62.5591 64.3815 59.5438 64.3815 56.4713C64.3815 25.283 79.6301 0 98.4403 0C117.25 0 132.499 25.283 132.499 56.4713Z" fill="white"/>
<path d="M113.199 104.084C113.199 112.034 106.591 118.479 98.4403 118.479C90.2892 118.479 83.6815 112.034 83.6815 104.084C83.6815 96.1344 90.2892 89.6897 98.4403 89.6897C106.591 89.6897 113.199 96.1344 113.199 104.084Z" fill="white"/>
</svg>
